<svg width="310" height="366" viewBox="0 0 310 366" fill="none" xmlns="http://www.w3.org/2000/svg">
<path d="M103 1.01994C119.999 4.51994 130.999 73.0199 130.999 114.02C130.999 163.02 93.4673 165.69 83.9992 205.52C69.4987 266.52 78.9993 332.52 157 365.52C81.9985 362.015 47.8709 315.515 43.9985 270.015C41.7007 243.015 47.9985 215.515 40.4985 191.515C31.4896 162.686 0 163.032 0 114.032C0 73.0321 11 4.53215 27.9983 1.03215L29.5 89.5321C29.5 115.03 51.4636 117.53 52.5 89.0299C53.9447 49.3006 54.9986 -0.985362 65.4986 0.0146866C75.9986 -0.985362 77.0538 49.2884 78.4985 89.0177C79.5349 117.518 101.499 115.018 101.499 89.5199L103 1.01994Z" fill="#8D50FF"/>
<g filter="url(#filter0_i_150_3)">
<path d="M84.0022 205.52C69.5017 266.52 79.0023 332.52 157.003 365.52C86.9979 359.015 62.5167 297.015 63.5016 264.515C64.3221 237.439 70.6316 209.632 91.2359 187.515C88.1956 192.671 85.6658 198.522 84.0022 205.52Z" fill="#8023FF"/>
</g>
<path d="M108.998 199.021C97.4983 217.021 93.499 239.014 103.999 268.515C109.499 250.014 122.839 240.521 150.998 219.521C171.6 204.157 183.237 190.939 189.999 167.515C146.499 167.514 123.373 176.521 108.998 199.021Z" fill="#8D50FF"/>
<g filter="url(#filter1_i_150_3)">
<path d="M150.998 219.521C122.839 240.521 109.499 250.015 103.999 268.515C124.499 284.015 157.498 281.014 174.498 267.514C199.998 247.264 212.998 213.014 192.498 167.014C191.878 165.624 190.771 165.829 189.998 167.515C183.237 190.939 171.6 204.157 150.998 219.521Z" fill="#8023FF"/>
</g>
<path d="M223.999 192.515C282.939 308.515 174.499 351.023 125.999 325.015C191.499 390.515 318.999 336.515 308.999 212.515C305.894 174.015 286.283 141.015 262.499 99.5146C234.474 50.6166 237.999 25.0146 240.999 8.51465C220.999 16.5146 196.008 44.5146 191.499 67.5146C181.499 118.515 198.847 143.015 223.999 192.515Z" fill="#8D50FF"/>
<g filter="url(#filter2_i_150_3)">
<path d="M262.5 99.5146C234.476 50.6166 238 25.0146 241 8.51465C216.499 42.0146 217.856 97.2249 253.499 168.015C289.499 239.515 288.999 299.814 251 336.87C287.203 314.968 313.775 271.721 309 212.515C305.895 174.015 286.285 141.015 262.5 99.5146Z" fill="#8023FF"/>
</g>
<defs>
<filter id="filter0_i_150_3" x="63.4731" y="187.515" width="98.5298" height="178.006" filterUnits="userSpaceOnUse" color-interpolation-filters="sRGB">
<feFlood flood-opacity="0" result="BackgroundImageFix"/>
<feBlend mode="normal" in="SourceGraphic" in2="BackgroundImageFix" result="shape"/>
<feColorMatrix in="SourceAlpha" type="matrix" values="0 0 0 0 0 0 0 0 0 0 0 0 0 0 0 0 0 0 127 0" result="hardAlpha"/>
<feOffset dx="5"/>
<feGaussianBlur stdDeviation="10"/>
<feComposite in2="hardAlpha" operator="arithmetic" k2="-1" k3="1"/>
<feColorMatrix type="matrix" values="0 0 0 0 0.168419 0 0 0 0 0 0 0 0 0 0.576923 0 0 0 0.5 0"/>
<feBlend mode="normal" in2="shape" result="effect1_innerShadow_150_3"/>
</filter>
<filter id="filter1_i_150_3" x="103.999" y="166.096" width="98.6177" height="116.845" filterUnits="userSpaceOnUse" color-interpolation-filters="sRGB">
<feFlood flood-opacity="0" result="BackgroundImageFix"/>
<feBlend mode="normal" in="SourceGraphic" in2="BackgroundImageFix" result="shape"/>
<feColorMatrix in="SourceAlpha" type="matrix" values="0 0 0 0 0 0 0 0 0 0 0 0 0 0 0 0 0 0 127 0" result="hardAlpha"/>
<feOffset dy="4"/>
<feGaussianBlur stdDeviation="10"/>
<feComposite in2="hardAlpha" operator="arithmetic" k2="-1" k3="1"/>
<feColorMatrix type="matrix" values="0 0 0 0 0.168627 0 0 0 0 0 0 0 0 0 0.576471 0 0 0 0.5 0"/>
<feBlend mode="normal" in2="shape" result="effect1_innerShadow_150_3"/>
</filter>
<filter id="filter2_i_150_3" x="224.395" y="8.51465" width="90.1611" height="328.354" filterUnits="userSpaceOnUse" color-interpolation-filters="sRGB">
<feFlood flood-opacity="0" result="BackgroundImageFix"/>
<feBlend mode="normal" in="SourceGraphic" in2="BackgroundImageFix" result="shape"/>
<feColorMatrix in="SourceAlpha" type="matrix" values="0 0 0 0 0 0 0 0 0 0 0 0 0 0 0 0 0 0 127 0" result="hardAlpha"/>
<feOffset dx="5"/>
<feGaussianBlur stdDeviation="10"/>
<feComposite in2="hardAlpha" operator="arithmetic" k2="-1" k3="1"/>
<feColorMatrix type="matrix" values="0 0 0 0 0.168419 0 0 0 0 0 0 0 0 0 0.576923 0 0 0 0.5 0"/>
<feBlend mode="normal" in2="shape" result="effect1_innerShadow_150_3"/>
</filter>
</defs>
</svg>
